<?xml version="1.0" encoding="utf-8"?>
<!-- Svg Vector Icons : http://www.onlinewebfonts.com/icon -->
<!DOCTYPE svg PUBLIC "-//W3C//DTD SVG 1.1//EN" "http://www.w3.org/Graphics/SVG/1.1/DTD/svg11.dtd">
<svg version="1.1" xmlns="http://www.w3.org/2000/svg" xmlns:xlink="http://www.w3.org/1999/xlink" x="0px" y="0px" viewBox="0 0 1000 1000" enable-background="new 0 0 1000 1000" xml:space="preserve">
<metadata> Svg Vector Icons : http://www.onlinewebfonts.com/icon </metadata>
<g><path d="M921.6,32H312.7c-41.3,0-91.2,38.2-91.2,85.5v62.7c0,3.2,1.2,6.4,3.6,8.7c29.5,28.9,64.8,8.5,64.8-20.2v-48.4c0-5.9,15.1-17.6,22.8-17.6h584.4c13.5,0,22.1,10.9,22.2,24.4c0.5,82.4,0.2,349.1,0,389.9c0,2.9-2.4,5.3-5.3,5.3h-95.2c-3.3,0-6.4,1.3-8.7,3.6c-28.8,29.6-8.4,64.8,20.3,64.8h91.2c42.8,0,68.4-27.7,68.4-74V117.6C990,66.4,962.5,32,921.6,32z M511.4,563.2H180.8c-3.3,0-6.4,1.3-8.7,3.6c-28.8,29.6-8.4,64.8,20.3,64.8H523c3.3,0,6.4-1.3,8.7-3.6C560.5,598.4,540,563.2,511.4,563.2z M579.8,403.7h-399c-3.3,0-6.4,1.3-8.7,3.6c-28.8,29.6-8.4,64.8,20.3,64.8h399c3.3,0,6.4-1.3,8.7-3.6C628.9,438.9,608.4,403.7,579.8,403.7z M710.1,734.4H443l-21.8,7.8L237.9,893.8V746.4c0-5.8-4.7-10.5-10.4-10.6l-137.7-1.4c-6.3,0-11.4-5.1-11.4-11.4V312.5h631.7L710.1,734.4L710.1,734.4z M721.6,244.2H66.9C35.5,244.2,10,269.6,10,301v444.9c0,31.4,25.5,56.9,56.9,56.9h102.7v101.8c0,17.6,7,33.9,19.6,45.9c11.9,11.3,27.5,17.5,43.8,17.5c13.5,0,26.5-4.3,39-13.6l183.4-151.6h266.2c31.4,0,56.9-25.5,56.9-56.9V301C778.4,269.6,753,244.2,721.6,244.2z"/></g>
</svg>