<?xml version="1.0" encoding="utf-8"?>
<!-- Svg Vector Icons : http://www.onlinewebfonts.com/icon -->
<!DOCTYPE svg PUBLIC "-//W3C//DTD SVG 1.1//EN" "http://www.w3.org/Graphics/SVG/1.1/DTD/svg11.dtd">
<svg version="1.1" xmlns="http://www.w3.org/2000/svg" xmlns:xlink="http://www.w3.org/1999/xlink" x="0px" y="0px" viewBox="0 0 1000 1000" enable-background="new 0 0 1000 1000" xml:space="preserve">
<metadata> Svg Vector Icons : http://www.onlinewebfonts.com/icon </metadata>
<g><path d="M349.1,846.1c0,56.4-45.8,102.2-102.2,102.2H112.2C55.8,948.3,10,902.5,10,846.1V519.8c0-56.4,45.8-102.2,102.2-102.2h134.7c56.4,0,102.2,45.8,102.2,102.2V846.1z M290.1,519.8c0-23.9-19.4-43.2-43.2-43.2l-134.7,0c-23.9,0-43.2,19.4-43.2,43.2v326.3c0,23.9,19.4,43.2,43.2,43.2h134.7c23.9,0,43.2-19.4,43.2-43.2V519.8z"/><path d="M201.6,819.3c0,14.3-11.6,25.8-25.8,25.8h-7.4c-14.2,0-25.8-11.5-25.8-25.8v-7.4c0-14.3,11.6-25.8,25.8-25.8h7.4c14.2,0,25.8,11.5,25.8,25.8V819.3z"/><path d="M571.3,948.8c-73.4,0-152.2-9.3-178.9-120.5c-0.5-2.2,0.9-4.6,0.9-6.9V448.8c0-4.1-0.8-8.2,0.8-12l5-13.2c8.2-25.5,32.2-64.3,70.9-124.3c26.4-41.1,53.6-83.6,62-105c14.4-36.4,14.3-85.4,13.1-101.2c-0.8-11.1,4.6-21.8,14.2-27.5c2.5-1.5,24.8-14.4,53.8-14.4c18.4,0,35.5,5.1,50.6,15.2c41,27.3,86.9,69.8,77.9,158c-2.8,27.8-14.5,53.8-25.7,79.1c-7.4,16.6-14.4,32.2-18.3,47c-0.8,3-0.9,11.2-0.9,18c32.2,2.8,64.5,5.2,93.6,5.2c18.4,0,33.3-0.1,45.3-0.3c15.6-0.2,26.4-0.3,34.1,0c5.6,0.1,10.8,0.3,15.6,0.9c32,4.3,60.4,20.7,80,46.3c19.6,25.6,28,57.3,23.8,89.3c-4.1,31.1-20.3,59.4-44.8,78.7c10.8,19.9,15.1,42.7,12,65.2c-3.5,26.2-16.1,49.5-35.8,66.6c0,0.4,0,0.8,0.1,1.1c6.6,15.4,8.9,32.4,6.7,49.4c-3.2,24.2-16,46.3-35.1,61.3c5.1,12.4,6.8,26.2,4.8,40.6c-3.9,29.3-24.7,54-53.3,63.7c-17.3,8.7-39.2,10.6-68.4,10.6l0,0c-9.8,0-20.8-0.2-33-0.4c-14.8-0.3-31.6-0.6-50.3-0.6c-23.4,0-45.4,0.7-66.7,1.4C606.1,948.2,588.1,948.8,571.3,948.8z M452.2,817.8c14.7,61.9,47.8,72,120.7,72c16.2,0,32.7-0.6,51.1-1.2c21.8-0.7,43.8-1.4,68.2-1.4c19.2,0,36,0.3,51.2,0.6c11.8,0.2,22.3,0.4,31.8,0.4l0,0c8.5,0,34.4,0,42.1-4.5c2-1.1,4.1-2,6.3-2.7c6.4-1.9,13.7-7.7,14.8-16c0.5-3.4,0.5-8.4-2-12.4c-6.3-10.4-8-24.4-4.6-37.5c3.1-11.6,9.8-20.9,19.1-26.1c9.8-5.5,16.2-14.9,17.7-25.9c0.9-6.5-0.1-13.1-2.7-18.9c-6.7-14.8-8.4-50.4,12.3-65.7c10.8-7.9,17.6-19.4,19.4-32.6c1.5-11.5-1.1-23.1-7.5-32.8c-13-19.8-5.9-55,13.8-68.4c14.5-9.9,24.1-25.5,26.4-42.8c2.2-16.4-2.1-32.6-12.2-45.7c-10-13.1-24.6-21.5-40.9-23.7c-2.7-0.4-5.3-0.4-7.9-0.4c-0.4,0-1.7,0-2.1,0c-6.9-0.3-17.1-0.2-31.3,0c-12.2,0.1-27.3,0.3-45.9,0.3c-37.5,0-78.3-3.6-117.9-7.1l-8.9-0.8c-7.9-0.7-15.2-4.6-20.2-10.7c-5-6.1-7.4-14-6.5-21.9c0.8-7.4,0.9-15.5,0.9-23.2c0.1-11.9,0.2-23.1,2.9-33.5c5.1-19.4,13.4-38,21.4-56c9.8-21.9,19-42.7,20.9-61.1c6.1-59.1-22.3-83.2-51.9-102.9c-7.8-5.1-17.9-6.1-26.6-4.4c-0.2,25.3-3,67.7-17.8,105c-10.6,26.7-38.2,69.7-67.5,115.2c-26.4,41-59.2,92-64.9,111.2c-0.4,1.2,0.9,2.4,0.4,3.5l-2.3,9.1V817.8z"/><path d="M701.8,845.1c-0.1,0-0.2,0-0.3,0c-1.7,0-3.2,2.7-4.6,2.5c-8-0.1-14.5-5.2-14.5-13.3c0-8.2,6.6-14,14.7-14c4.8,0,19.4,0.4,19.7,14.8c0,2.1-0.4,1.4-1.3,3.2C713.5,843.9,708.1,845.1,701.8,845.1z"/><path d="M594,855.2c-35.8,0-66.5-7.2-94.8-39.8c-5.3-6.1-4.7-15.4,1.5-20.8c6.1-5.4,15.4-4.7,20.8,1.5c29.1,33.5,58.6,31.5,112.2,27.7c6.8-0.5,13.8-1,21.2-1.4c7.9-0.5,15.1,5.7,15.6,13.8c0.5,8.1-5.7,15.1-13.8,15.6c-7.3,0.4-14.2,0.9-20.9,1.4C621.1,854.2,607.2,855.2,594,855.2z"/></g>
</svg>