<?xml version="1.0" encoding="utf-8"?>
<!-- Svg Vector Icons : http://www.onlinewebfonts.com/icon -->
<!DOCTYPE svg PUBLIC "-//W3C//DTD SVG 1.1//EN" "http://www.w3.org/Graphics/SVG/1.1/DTD/svg11.dtd">
<svg version="1.1" xmlns="http://www.w3.org/2000/svg" xmlns:xlink="http://www.w3.org/1999/xlink" x="0px" y="0px" viewBox="0 0 1000 1000" enable-background="new 0 0 1000 1000" xml:space="preserve">
<metadata> Svg Vector Icons : http://www.onlinewebfonts.com/icon </metadata>
<g><path d="M904.1,155.9C792.9,45.7,615.2,43.4,500,147c-115.2-103.6-292.8-101.3-404,8.8c-114.6,113.5-114.6,297.4,0,410.9c32.8,32.4,338.5,335.2,338.5,335.2c36.2,35.9,94.8,35.9,131,0c0,0,334.8-331.5,338.5-335.2C1018.6,453.2,1018.6,269.3,904.1,155.9z M860.4,523.5L521.8,858.6c-12,11.9-31.6,11.9-43.6,0L139.6,523.5c-90.4-89.4-90.4-235,0-324.4c87.1-86.2,227.1-89.3,318.8-6.8l41.5,37.4l41.5-37.4c91.7-82.5,231.8-79.4,318.8,6.8C950.7,288.5,950.7,434,860.4,523.5z"/><path d="M293.3,224.3c-0.1,0-0.1,0-0.1,0c-71.8,0.1-130.1,58.3-130.1,130.1l0,0c0,8.5,6.9,15.3,15.3,15.3c8.5,0,15.3-6.9,15.3-15.3v0c0-54.9,44.6-99.5,99.5-99.5h0c8.5,0,15.3-6.9,15.3-15.3C308.6,231.2,301.8,224.3,293.3,224.3z"/></g>
</svg>