<?xml version="1.0" encoding="utf-8"?>
<!-- Svg Vector Icons : http://www.onlinewebfonts.com/icon -->
<!DOCTYPE svg PUBLIC "-//W3C//DTD SVG 1.1//EN" "http://www.w3.org/Graphics/SVG/1.1/DTD/svg11.dtd">
<svg version="1.1" xmlns="http://www.w3.org/2000/svg" xmlns:xlink="http://www.w3.org/1999/xlink" x="0px" y="0px" viewBox="0 0 1000 1000" enable-background="new 0 0 1000 1000" xml:space="preserve">
<metadata> Svg Vector Icons : http://www.onlinewebfonts.com/icon </metadata>
<g><path d="M366.3,277.3C169.6,277.3,10,411.8,10,578c0,85.2,42.2,162,109.9,216.7l-43,150.7l199.8-76.8c28.7,6.4,58.7,9.9,89.8,9.9c196.8,0,356.5-134.5,356.5-300.7C722.9,411.6,563.1,277.3,366.3,277.3z M366.3,834.2c-26.1,0-53.1-3-80.2-9c-3.2-0.8-6.4-1-9.6-1c-5.4,0-10.9,1-15.9,3L144.1,872l18.5-64.9c5-17.1-1-35.6-14.7-46.8C87.6,711.6,54.6,646.9,54.6,578c0-141.3,139.9-256.1,311.9-256.1S678.3,436.7,678.3,578C678.3,719.3,538.2,834.2,366.3,834.2z M990,355.3c0-166-159.6-300.7-356.5-300.7c-147.1,0-273.3,75-327.6,182.3c17.5-2.2,35.4-3.8,53.7-4C412.6,153.3,515.5,99,633.5,99c172,0,311.9,114.8,311.9,256.1c0,68.9-33.2,133.5-93.3,182.1c-13.9,11.3-19.7,29.7-14.7,47l18.5,64.9l-92.1-35.4c-1.8,15.1-5.2,29.9-9.2,44.2l168.6,64.9l-43-150.7C947.8,517.3,990,440.5,990,355.3z"/></g>
</svg>