<?xml version="1.0" encoding="utf-8"?>
<!-- Svg Vector Icons : http://www.onlinewebfonts.com/icon -->
<!DOCTYPE svg PUBLIC "-//W3C//DTD SVG 1.1//EN" "http://www.w3.org/Graphics/SVG/1.1/DTD/svg11.dtd">
<svg version="1.1" xmlns="http://www.w3.org/2000/svg" xmlns:xlink="http://www.w3.org/1999/xlink" x="0px" y="0px" viewBox="0 0 1000 1000" enable-background="new 0 0 1000 1000" xml:space="preserve">
<metadata> Svg Vector Icons : http://www.onlinewebfonts.com/icon </metadata>
<g><path d="M262.5,552.8c247.7,482,475.5,0,475.5,0C500.3,506.6,262.5,552.8,262.5,552.8z M500.2,10.2C252.6,4.8-1.1,241,10.4,500c11,247.3,209,494.5,489.8,489.8C749.1,985.7,990,747.6,990,500C990,252.4,788.7,16.6,500.2,10.2z M500.3,913.1C272.5,913.1,87.1,727.8,87.1,500C87.1,272.3,272.5,87,500.3,87C728.2,87,913.5,272.3,913.5,500C913.5,727.8,728.2,913.1,500.3,913.1z M355,420.8c21.9,0,39.6-17.7,39.6-39.6v-26.4c0-21.9-17.7-39.6-39.6-39.6c-21.9,0-39.6,17.7-39.6,39.6v26.4C315.4,403,333.1,420.8,355,420.8z M672.1,420.8c21.9,0,39.6-17.7,39.6-39.6v-26.4c0-21.9-17.7-39.6-39.6-39.6c-21.9,0-39.6,17.7-39.6,39.6v26.4C632.4,403,650.1,420.8,672.1,420.8z"/></g>
</svg>